<svg width="100%" height="100%" viewBox="0 0 16 16"xmlns="http://www.w3.org/2000/svg">
  <path d="M7.95729 2.30606L7.99413 2.30606L7.95729 2.30606ZM7.96256 2.30606L1.3631 0.0303597C1.03087 -0.0424444 0.683894 0.0495672 0.431598 0.277375C0.158307 0.520586 0.00141553 0.868341 5.40162e-05 1.2339L5.40162e-05 18.7457C-0.003282 19.109 0.147814 19.4566 0.415809 19.7023C0.666675 19.9446 1.02149 20.0469 1.3631 19.9756L8.16254 17.6315C8.63873 17.347 8.92588 16.8296 8.91511 16.2756L8.91511 3.76187C8.93012 3.12643 8.55133 2.5475 7.96256 2.30606ZM7.24683 15.7132L1.68939 17.3477L1.68939 2.63191L7.24683 4.26642L7.24683 15.7132ZM18.9143 0.00408148C18.8372 -0.00136062 18.7598 -0.00136062 18.6827 0.00408148L12.1306 2.29555C11.5065 2.51573 11.0946 3.11148 11.1097 3.77238L11.1097 16.244C11.1035 16.7984 11.3892 17.3152 11.8622 17.6053L18.6775 19.9756C19.0097 20.0484 19.3567 19.9564 19.609 19.7285C19.8748 19.4725 20.0168 19.1141 19.9984 18.7457L19.9984 1.2339C20.0034 0.913405 19.889 0.602483 19.6774 0.361466C19.484 0.141391 19.2074 0.0118627 18.9143 0.00408148Z" fill="currentColor"/>
</svg>