<svg width="100%" height="100%" viewBox="0 0 16 16"xmlns="http://www.w3.org/2000/svg">
  <path d="M16.9468 7.66258L18.6678 5.8151L20 7.24443L16.0052 11.5293L12.0105 7.24443L13.3427 5.8151L15.0639 7.66258L15.0639 5.05049C15.0639 3.3769 13.7993 2.02015 12.2394 2.02015L8.47331 2.02015L8.47331 0L12.2394 0C14.8392 0 16.9468 2.26118 16.9468 5.05049L16.9468 7.66258ZM10.3564 8.71206C10.8764 8.71206 11.2978 9.16443 11.2978 9.72229L11.2978 18.9899C11.2978 19.5478 10.8764 20 10.3564 20L0.941569 20C0.4216 20 1.68351e-07 19.5478 0 18.9899L0 9.72229C0 9.16443 0.4216 8.71206 0.941569 8.71206L10.3564 8.71206ZM9.41488 10.7323L1.88293 10.7323L1.88293 17.9798L9.41488 17.9798L9.41488 10.7323Z" fill="currentColor"/>
</svg>