<svg width="100%" height="100%" viewBox="0 0 16 16"xmlns="http://www.w3.org/2000/svg">
  <path d="M0.809418 9.87672L5.84385 5.28442C5.85136 5.27763 5.85387 5.26857 5.86013 5.26178C5.86139 5.26064 5.86515 5.25951 5.8664 5.25838C6.04557 5.09534 6.04432 4.83153 5.86389 4.66962L0.783105 0.120727C0.602678 -0.0411813 0.311989 -0.0400491 0.132815 0.122991C0.0446892 0.203756 0 0.310563 0 0.416237C0 0.523043 0.0459422 0.630605 0.136574 0.711747L4.89409 4.97117L0.155368 9.29136C0.0672426 9.37213 0.0225534 9.4778 0.0225534 9.58461C0.0225534 9.69254 0.0684956 9.79897 0.159127 9.88012C0.337884 10.0416 0.630243 10.0394 0.809418 9.87672Z" fill="currentColor"/>
</svg>