<svg width="100%" height="100%" viewBox="0 0 16 16"xmlns="http://www.w3.org/2000/svg">
  <path d="M9.50182 4.50183L5.49817 4.50183L5.49817 0.498178C5.49817 0.223043 5.27513 0 4.99999 0C4.72486 0 4.50181 0.223043 4.50181 0.498178L4.50181 4.50183L0.498178 4.50183C0.223043 4.50183 0 4.72487 0 5.00001C0 5.27514 0.223043 5.49818 0.498178 5.49818L4.50181 5.49818L4.50181 9.50182C4.50181 9.77696 4.72486 10 4.99999 10C5.27513 10 5.49817 9.77696 5.49817 9.50182L5.49817 5.49818L9.50182 5.49818C9.77696 5.49818 10 5.27514 10 5.00001C10 4.72487 9.77696 4.50183 9.50182 4.50183Z" fill="currentColor"/>
</svg>