<svg width="100%" height="100%" viewBox="0 0 16 16"xmlns="http://www.w3.org/2000/svg">
  <path d="M7.30032 10.0089Q6.72923 10.0089 6.23602 9.78705Q5.74281 9.56522 5.37939 9.18367Q5.01597 8.80213 4.79965 8.29636Q4.58333 7.7906 4.58333 7.22272Q4.58333 6.65484 4.79965 6.14907Q5.01597 5.6433 5.37939 5.27063Q5.74281 4.89796 6.23602 4.67613Q6.72923 4.4543 7.30032 4.4543Q7.8541 4.4543 8.34731 4.67613Q8.84052 4.89796 9.20394 5.27063Q9.56736 5.6433 9.78368 6.14907Q10 6.65484 10 7.22272Q10 7.79059 9.78368 8.29636Q9.56736 8.80213 9.20394 9.18367Q8.84052 9.56522 8.34731 9.78704Q7.8541 10.0089 7.30032 10.0089ZM18.6658 20L1.33418 20C0.597331 20 0 19.4027 0 18.6658L0 1.33418C0 0.597331 0.597331 0 1.33418 0L18.6658 0C19.4027 0 20 0.597331 20 1.33418L20 2.21832L20 18.6658C20 19.4027 19.4027 20 18.6658 20M14.8429 10.4436Q15.4832 10.8784 16.0284 11.5705Q16.5736 12.2626 17.0321 13.1144Q17.4907 13.9662 17.8367 14.7826L17.8367 3.5525C17.8367 2.81565 17.2394 2.21832 16.5025 2.21832L3.51476 2.21832C2.77791 2.21832 2.18058 2.81565 2.18058 3.5525L2.18058 15.9361Q2.49208 15.4747 2.87272 15.0133C3.86803 13.8071 4.55814 12.9373 6.20141 13.6114Q6.50426 13.7356 6.76384 13.8864Q7.02343 14.0373 7.32628 14.1615Q7.62913 14.2857 8.00985 14.3656Q8.39058 14.4454 8.92705 14.4454Q9.46353 14.4454 9.8529 14.1171Q10.2423 13.7888 10.5711 13.2919Q10.8999 12.795 11.2287 12.2272C11.9387 11.0009 13.3268 9.41427 14.8429 10.4436Z" fill="currentColor"/>
</svg>