<svg width="100%" height="100%" viewBox="0 0 16 16"xmlns="http://www.w3.org/2000/svg">
  <path d="M0.000480131 0.461671C0.000480131 0.342946 0.0579399 0.234692 0.152347 0.152911C0.234229 0.0578835 0.342837 0 0.461991 0L11.5383 0C11.6571 0 11.7654 0.0575582 11.8472 0.15211C11.9422 0.233984 12 0.342558 12 0.461671L12 11.5384C12 11.6576 11.9421 11.7662 11.847 11.8481C11.7652 11.9425 11.657 12 11.5382 12L0.461529 12C0.341768 12 0.232661 11.9415 0.150634 11.8456C0.0572452 11.764 0.000480131 11.6564 0.000480131 11.5384L0.000480131 11.4356C0.000161194 11.4266 0 11.4175 0 11.4084C0 11.3993 0.000161194 11.3902 0.000480131 11.3812L0.000480131 0.461671ZM1.18362 10.8168L10.8169 10.8168L10.8169 1.18318L1.18362 1.18318L1.18362 10.8168Z" fill="currentColor"/>
</svg>