<svg width="100%" height="100%" viewBox="0 0 16 16"xmlns="http://www.w3.org/2000/svg">
  <path d="M10.9258 0.193977L6.00062 5.1197L1.07542 0.193977C0.829325 -0.0312513 0.44956 -0.0228364 0.213678 0.213072C-0.0222049 0.448979 -0.0306186 0.828784 0.194586 1.07491L5.11728 6.00063L0.193336 10.9251C-0.0600483 11.1666 -0.0650337 11.5694 0.182295 11.8171C0.429624 12.0648 0.832335 12.0604 1.07417 11.8073L6.00062 6.88281L10.9258 11.8085C11.1719 12.0338 11.5517 12.0253 11.7876 11.7894C12.0234 11.5535 12.0319 11.1737 11.8067 10.9276L6.88146 6.00188L11.8067 1.07491C12.06 0.833405 12.065 0.430649 11.8177 0.182939C11.5704 -0.0647707 11.1677 -0.0603508 10.9258 0.192728L10.9258 0.193977Z" fill="currentColor"/>
</svg>