<svg width="100%" height="100%" viewBox="0 0 16 16"xmlns="http://www.w3.org/2000/svg">
  <path d="M13.7149 3.71788Q13.4955 3.71788 13.3459 3.56796Q13.1963 3.41805 13.0965 3.21816Q12.9968 3.01828 12.9469 2.8084Q12.8971 2.59852 12.8971 2.4586L12.8971 9.88611e-07L12.937 9.88611e-07Q13.1165 9.88611e-07 13.2761 0.0399781Q13.4356 0.0799553 13.665 0.22987Q13.8944 0.379784 14.2236 0.64963Q14.5527 0.919475 15.0514 1.35922Q15.59 1.83895 15.9091 2.16876Q16.2283 2.49857 16.3978 2.72844Q16.5674 2.95831 16.6073 3.11822Q16.6472 3.27813 16.6472 3.39806L16.6472 3.71788L13.7149 3.71788ZM19.9185 13.1325Q19.9784 13.2924 19.9983 13.5323Q20.0183 13.7721 19.7989 13.992Q19.6991 14.0919 19.6193 14.1819Q19.5395 14.2718 19.4797 14.3318Q19.3999 14.4118 19.3401 14.4517L17.6445 12.7727Q17.7642 12.6728 17.9138 12.5328Q18.0634 12.3929 18.1632 12.313Q18.4025 12.0931 18.6818 12.1231Q18.9611 12.1531 19.1406 12.253Q19.3401 12.3529 19.5695 12.6028Q19.7989 12.8527 19.9185 13.1325ZM12.8771 14.9914Q13.316 14.9914 13.6152 14.7516L9.74537 18.7893L2.57324 18.7893Q2.19424 18.7893 1.7454 18.5694Q1.29659 18.3496 0.907593 17.9897Q0.518618 17.6299 0.259399 17.1602Q8.30491e-05 16.6905 0 16.1908L0 2.57853Q0 2.15877 0.189412 1.69902Q0.378913 1.23928 0.708211 0.869547Q1.03734 0.499759 1.4561 0.249837Q1.87499 -1.99737e-05 2.33378 0L11.6404 0L11.6404 2.49857Q11.6404 2.87836 11.7601 3.3181Q11.8797 3.75785 12.1291 4.12764Q12.3784 4.49743 12.7774 4.74729Q13.1763 4.99714 13.7348 4.99714L16.6472 4.99714L16.6472 11.6134L13.9144 14.4517Q14.1338 14.1319 14.1338 13.7521Q14.1338 13.2324 13.7648 12.8626Q13.3957 12.4929 12.8771 12.4929L3.73027 12.4929Q3.21163 12.4929 2.85258 12.8626Q2.49353 13.2324 2.49349 13.7521Q2.49349 14.2718 2.85258 14.6317Q3.21163 14.9914 3.73027 14.9915L12.8771 14.9914ZM3.73027 7.49573Q3.21163 7.49573 2.85258 7.8655Q2.49353 8.23529 2.49349 8.75498Q2.49349 9.27469 2.85258 9.6345Q3.21163 9.9943 3.73027 9.9943L12.8771 9.99429Q13.3957 9.99429 13.7648 9.63449Q14.1338 9.2747 14.1338 8.755Q14.1338 8.23529 13.7648 7.86551Q13.3957 7.49572 12.8771 7.49572L3.73027 7.49573ZM12.917 17.51L13.1763 17.2501L13.675 16.7504Q13.9742 16.4506 14.3333 16.0808Q14.6923 15.711 15.0514 15.3512Q15.9091 14.4917 16.9863 13.4323L18.6619 15.1114L16.727 17.0503L16.0089 17.7698L15.3506 18.4295Q15.0713 18.7093 14.8818 18.9092Q14.6923 19.1091 14.6724 19.1291Q14.5726 19.209 14.453 19.299Q14.3333 19.3889 14.2136 19.4489Q14.0939 19.5089 13.8446 19.5988Q13.5952 19.6887 13.3359 19.7687Q13.0766 19.8487 12.8372 19.9086Q12.5978 19.9686 12.4782 19.9886Q12.2388 20.0286 12.159 19.9286Q12.0792 19.8287 12.1191 19.5888Q12.1391 19.4689 12.1989 19.229Q12.2587 18.9891 12.3385 18.7393Q12.4183 18.4894 12.4881 18.2696Q12.558 18.0497 12.5978 17.9697Q12.7175 17.7099 12.917 17.51Z" fill="currentColor"/>
</svg>