<svg width="100%" height="100%" viewBox="0 0 16 16"xmlns="http://www.w3.org/2000/svg">
  <path d="M8.61539 14L8.61539 10.7639C8.61495 9.87201 7.89184 9.14926 7 9.14926C6.10816 9.14926 5.38505 9.87201 5.38462 10.7639L5.38462 14L1.07531 14C0.48159 13.9991 0.000592774 13.5179 0 12.9242L0 5.54079C0 5.24464 0.187385 4.86071 0.427538 4.67602L6.14869 0.274647C6.61877 -0.0871983 7.38608 -0.0925829 7.86531 0.264955L13.573 4.52472C13.8088 4.70079 14 5.08848 14 5.38248L14 12.9225C14.0003 13.5169 13.519 13.9991 12.9247 14L8.61539 14Z" fill="currentColor"/>
</svg>