<svg width="100%" height="100%" viewBox="0 0 16 16"xmlns="http://www.w3.org/2000/svg">
  <path d="M274 50L274 10C274 4.47721 269.538 6.78416e-05 264.015 6.75183e-05L9.98439 0C4.46153 0 1.01456e-05 4.47717 2.26608e-05 10L0.000113304 50C0.000125819 55.5229 4.46169 60 9.98453 60L264.016 60C269.538 60 274 55.5228 274 50ZM273 50L273 10Q273 6.27003 270.371 3.63534Q267.741 1.00007 264.015 1.00007L137 1.00003L9.98439 1Q6.25858 1 3.629 3.63528Q1.00002 6.26996 1.00002 10L1.00011 50Q1.00012 53.7301 3.62913 56.3647Q6.25874 59 9.98453 59L264.016 59Q267.741 59 270.371 56.3647Q273 53.7301 273 50Z" fill="currentColor"/>
</svg>