<svg width="100%" height="100%" viewBox="0 0 16 16"xmlns="http://www.w3.org/2000/svg">
  <path d="M0 8L2.69437 8C5.30454 8 7.1088 6.74362 7.1088 3.96242C7.1088 1.18121 5.30454 0 2.57408 0L0 0L0 8ZM2.15309 6.45369L2.15309 1.53557L2.44177 1.53557C3.88518 1.53557 4.9076 2.06175 4.9076 3.96242C4.9076 5.86309 3.88518 6.45369 2.44177 6.45369L2.15309 6.45369ZM7.50574 8L9.79114 8L10.561 6.44295C10.7654 6.02416 10.9699 5.60537 11.1744 5.11141L11.2225 5.11141C11.4631 5.60537 11.6676 6.02416 11.8841 6.44295L12.7141 8L15.1077 8L12.6419 3.97315L14.9513 0L12.678 0L12.0284 1.43893C11.848 1.81477 11.6555 2.23356 11.4511 2.74899L11.403 2.74899C11.1504 2.23356 10.9579 1.81477 10.7534 1.43893L10.0317 0L7.63805 0L9.95954 3.88725L7.50574 8ZM16.2865 8L18.4396 8L18.4396 4.95034L21.4948 4.95034L21.4948 3.35034L18.4396 3.35034L18.4396 1.6L22 1.6L22 0L16.2865 0L16.2865 8Z" fill="currentColor"/>
</svg>