<svg width="100%" height="100%" viewBox="0 0 16 16"xmlns="http://www.w3.org/2000/svg">
  <path d="M4.61086 7.44658C4.56132 7.44658 4.56132 7.44658 4.61086 7.44658L3.62008 6.46028L3.12469 5.96712C2.67884 5.52329 2.3816 4.98082 2.33206 4.38904C2.33206 3.99452 2.3816 3.40274 2.87699 2.90959C3.32284 2.46576 3.86777 2.36713 4.26408 2.36713C4.85855 2.36713 5.50256 2.6137 5.99795 3.10685L9.6143 6.70685C10.506 7.59452 10.6051 8.97534 9.81246 9.76438C9.36661 10.2082 9.36661 10.9479 9.81246 11.3918C10.2583 11.8356 11.0014 11.8356 11.4472 11.3918C12.2894 10.5534 12.6857 9.51781 12.6857 8.38356C12.6857 7.2 12.1903 5.96712 11.2491 5.03014L7.63274 1.43014C6.74104 0.542466 5.50256 0 4.26409 0C3.12469 0 2.03483 0.443836 1.2422 1.23288C0.40004 2.07123 -0.0458112 3.25479 0.00372795 4.43836C0.0532671 5.62192 0.548657 6.70685 1.44036 7.59452L1.93575 8.08767L2.87699 9.07397C3.32284 9.51781 4.06593 9.51781 4.51178 9.07397C5.00717 8.63014 5.05671 7.89041 4.61086 7.44658Z" fill="currentColor"/>
</svg>