<svg width="100%" height="100%" viewBox="0 0 16 16"xmlns="http://www.w3.org/2000/svg">
  <path d="M0 8L2.0825 8L2.0825 5.34765L3.09466 5.34765C4.93284 5.34765 6.51507 4.51007 6.51507 2.6094C6.51507 0.633557 4.94447 0 3.04812 0L0 0L0 8ZM2.0825 3.83356L2.0825 1.52483L2.93178 1.52483C3.93231 1.52483 4.49075 1.80403 4.49075 2.6094C4.49075 3.39329 4.00211 3.83356 2.98995 3.83356L2.0825 3.83356ZM7.9926 8L10.5986 8C13.1232 8 14.8683 6.74362 14.8683 3.96242C14.8683 1.18121 13.1232 0 10.4823 0L7.9926 0L7.9926 8ZM10.0751 6.45369L10.0751 1.53557L10.3543 1.53557C11.7504 1.53557 12.7393 2.06175 12.7393 3.96242C12.7393 5.86309 11.7504 6.45369 10.3543 6.45369L10.0751 6.45369ZM16.4738 8L18.5563 8L18.5563 4.95034L21.5114 4.95034L21.5114 3.35034L18.5563 3.35034L18.5563 1.6L22 1.6L22 0L16.4738 0L16.4738 8Z" fill="currentColor"/>
</svg>