<svg width="100%" height="100%" viewBox="0 0 16 16"xmlns="http://www.w3.org/2000/svg">
  <path d="M6.22222 2.7L4.44445 2.7L4.44445 0.900001C4.44445 0.402944 4.04648 0 3.55556 0C3.06464 0 2.66667 0.402944 2.66667 0.900001L2.66667 2.7L0.888889 2.7C0.397969 2.7 0 3.10294 0 3.6C0 4.09706 0.397969 4.5 0.888889 4.5L2.66667 4.5L2.66667 6.3C2.66667 6.79706 3.06464 7.2 3.55556 7.2C4.04648 7.2 4.44445 6.79706 4.44445 6.3L4.44445 4.5L6.22222 4.5C6.71314 4.5 7.11111 4.09706 7.11111 3.6C7.11111 3.10294 6.71314 2.7 6.22222 2.7Z" fill="currentColor"/>
</svg>