<svg width="100%" height="100%" viewBox="0 0 16 16"xmlns="http://www.w3.org/2000/svg">
  <path d="M28.3958 31.2824C27.7728 29.892 26.8118 28.2986 25.2316 26.2552C22.162 22.5745 15.4088 21.6544 10.8044 16.4401C6.19994 11.2258 6.19994 3.8645 3.74424 2.02417Q2.53569 1.11846 1.47583 0.584205Q0.69788 0.192049 3.89092e-05 2.30908e-05C0.536047 0.0696701 1.06596 0.168516 1.58757 0.295536C4.6088 1.03124 7.35168 2.71211 9.38858 5.13881L25.4701 24.298C27.14 26.2874 28.2436 28.6701 28.6905 31.1977C28.7628 31.607 28.818 32.02 28.8555 32.4358C28.7257 32.0642 28.5747 31.6817 28.3958 31.2824ZM3.92913 1.77746Q3.31111 1.31431 2.7295 0.945725Q3.90634 1.34449 5.0161 1.95029Q7.40373 3.25365 9.15244 5.33702L25.234 24.4962Q27.3499 27.0171 28.1415 30.0878Q27.1356 28.2134 25.4754 26.0666Q25.472 26.0621 25.4683 26.0577Q24.4876 24.8818 22.7498 23.7979Q21.7076 23.1479 19.3325 21.9506Q16.4621 20.5036 15.0393 19.5935Q12.6518 18.0665 11.0355 16.236Q9.37252 14.3528 8.15988 11.6287Q7.44652 10.0261 6.47217 6.96818Q5.76152 4.73785 5.37503 3.85563Q4.72633 2.37489 3.92913 1.77746Z" fill="currentColor"/>
</svg>