<svg width="100%" height="100%" viewBox="0 0 16 16"xmlns="http://www.w3.org/2000/svg">
  <path d="M7.87799 5.15568L9.77191 0.864077C10.0166 0.309686 9.39431 -0.225795 8.8819 0.0981848L0.539089 5.37316C-0.196912 5.83852 -0.175148 6.91851 0.579005 7.35389L8.85619 12.1323C9.37979 12.4346 9.97924 11.8781 9.71603 11.3341L7.91386 7.60946L13.6548 7.60946Q18.7407 7.60946 22.337 11.2029Q25.7788 14.6421 25.9266 19.4447C24.1549 19.9747 22.8636 21.6162 22.8636 23.559C22.8636 25.9306 24.7877 27.8531 27.1611 27.8531C29.5345 27.8531 31.4586 25.9306 31.4586 23.559C31.4586 21.6117 30.1614 19.9672 28.3833 19.441Q28.2334 13.6246 24.0734 9.46785Q19.7579 5.15568 13.6548 5.15568L7.87799 5.15568ZM27.1611 21.7187C28.1783 21.7187 29.0029 22.5426 29.0029 23.559C29.0029 24.5754 28.1783 25.3993 27.1611 25.3993C26.1439 25.3993 25.3193 24.5754 25.3193 23.559C25.3193 22.5426 26.1439 21.7187 27.1611 21.7187Z" fill="currentColor"/>
</svg>