<svg width="100%" height="100%" viewBox="0 0 16 16"xmlns="http://www.w3.org/2000/svg">
  <path d="M0 19.9082L0 30C0 32.2091 1.79086 34 4 34L29 34C31.2091 34 33 32.2091 33 30L33 18.7675C33 17.8441 32.0006 17.2667 31.2006 17.7279L22.8 22.5714L12.0094 28.9332C11.2095 29.4048 10.2 28.8281 10.2 27.8995L10.2 17.6896C10.2 16.8842 9.42226 16.3074 8.65155 16.5413L0.709621 18.9513C0.288161 19.0792 0 19.4678 0 19.9082M1.79939 16.2721L10.2 11.4286L20.9906 5.06679C21.7905 4.59516 22.8 5.17188 22.8 6.10051L22.8 16.3104C22.8 17.1158 23.5777 17.6926 24.3485 17.4587L32.2904 15.0487C32.7118 14.9208 33 14.5322 33 14.0918L33 4C33 1.79086 31.2091 0 29 0L4 0C1.79086 0 0 1.79086 0 4L0 15.2325C0 16.1559 0.999387 16.7333 1.79939 16.2721" fill="currentColor"/>
</svg>