<svg width="100%" height="100%" viewBox="0 0 16 16"xmlns="http://www.w3.org/2000/svg">
  <path d="M9.59693 0.174572L5.27077 4.60754L0.944621 0.174572C0.728456 -0.0281251 0.394881 -0.020552 0.187689 0.191757C-0.0195041 0.404065 -0.0268945 0.745876 0.170918 0.967379L4.49488 5.40035L0.169821 9.8322C-0.0527447 10.0495 -0.0571238 10.412 0.160123 10.6349C0.377369 10.8579 0.7311 10.8539 0.943524 10.6261L5.27077 6.19428L9.59693 10.6273C9.81309 10.8299 10.1467 10.8224 10.3539 10.6101C10.561 10.3978 10.5684 10.0559 10.3706 9.83444L6.04448 5.40147L10.3706 0.967379C10.5932 0.750035 10.5976 0.387569 10.3803 0.164639C10.1631 -0.0582913 9.80935 -0.0543136 9.59693 0.173448L9.59693 0.174572Z" fill="currentColor"/>
</svg>