<svg width="100%" height="100%" viewBox="0 0 16 16"xmlns="http://www.w3.org/2000/svg">
  <path d="M12.682 7.23699C12.6325 6.05343 12.1371 4.96849 11.2454 4.08082L9.80873 2.65069C9.36288 2.20685 8.61979 2.20685 8.17394 2.65069C7.72809 3.09452 7.72809 3.83425 8.17394 4.27808L9.61058 5.70822C10.0564 6.15205 10.3537 6.74384 10.3537 7.33562C10.3537 7.73014 10.3041 8.32192 9.80873 8.81507C9.36288 9.2589 8.81795 9.35754 8.42164 9.35754C7.82717 9.35754 7.18316 9.06164 6.68777 8.61781L3.07142 5.01781C2.17972 4.13014 2.08064 2.74932 2.87326 1.96027C3.31912 1.51644 3.31912 0.776712 2.87326 0.332877C2.42741 -0.110959 1.68433 -0.110959 1.23848 0.332877C0.396312 1.17123 0 2.20685 0 3.3411C0 4.52466 0.49539 5.75753 1.43663 6.69452L5.05298 10.2945C5.94468 11.1822 7.18316 11.7247 8.42164 11.7247C9.56104 11.7247 10.6509 11.2808 11.4435 10.4918C12.3352 9.60411 12.7811 8.42055 12.682 7.23699Z" fill="currentColor"/>
</svg>