<svg width="100%" height="100%" viewBox="0 0 16 16"xmlns="http://www.w3.org/2000/svg">
  <path d="M0 7.85492L2.37723 7.85492C4.68017 7.85492 6.27207 6.64249 6.27207 3.95855C6.27207 1.27461 4.68017 0.134714 2.2711 0.134714L0 0.134714L0 7.85492ZM1.89966 6.36269L1.89966 1.61658L2.15437 1.61658C3.42788 1.61658 4.32996 2.12435 4.32996 3.95855C4.32996 5.79275 3.42788 6.36269 2.15437 6.36269L1.89966 6.36269ZM10.9947 8C13.1491 8 14.6136 6.48705 14.6136 3.95855C14.6136 1.44041 13.1491 0 10.9947 0C8.84033 0 7.37578 1.43005 7.37578 3.95855C7.37578 6.48705 8.84033 8 10.9947 8ZM10.9947 6.40414C9.95465 6.40414 9.31789 5.45078 9.31789 3.95855C9.31789 2.46632 9.95465 1.58549 10.9947 1.58549C12.0347 1.58549 12.6821 2.46632 12.6821 3.95855C12.6821 5.45078 12.0347 6.40414 10.9947 6.40414ZM19.4211 8C20.4506 8 21.3314 7.61658 22 6.8601L21.0024 5.69948C20.631 6.09326 20.1322 6.40414 19.4954 6.40414C18.3811 6.40414 17.6594 5.51295 17.6594 3.97927C17.6594 2.47668 18.4978 1.58549 19.5166 1.58549C20.0791 1.58549 20.493 1.8342 20.8963 2.18653L21.8833 1.00518C21.342 0.466321 20.5142 0 19.4848 0C17.479 0 15.7173 1.4715 15.7173 4.04145C15.7173 6.65285 17.4153 8 19.4211 8Z" fill="currentColor"/>
</svg>