<svg width="100%" height="100%" viewBox="0 0 16 16"xmlns="http://www.w3.org/2000/svg">
  <path d="M0 7.85492L2.19315 7.85492C4.31776 7.85492 5.78638 6.64249 5.78638 3.95855C5.78638 1.27461 4.31776 0.134714 2.09524 0.134714L0 0.134714L0 7.85492ZM1.75256 6.36269L1.75256 1.61658L1.98754 1.61658C3.16244 1.61658 3.99466 2.12435 3.99466 3.95855C3.99466 5.79275 3.16244 6.36269 1.98754 6.36269L1.75256 6.36269ZM7.76413 7.85492L9.9279 7.85492L10.5643 4.49741C10.672 3.90674 10.7601 3.28497 10.858 2.70466L10.8972 2.70466C10.9657 3.28497 11.0636 3.90674 11.1811 4.49741L11.8371 7.85492L14.0401 7.85492L15.3031 0.134714L13.6484 0.134714L13.1687 3.65803C13.0806 4.45596 12.9826 5.27461 12.8945 6.10363L12.8456 6.10363C12.6987 5.27461 12.5714 4.4456 12.4246 3.65803L11.6707 0.134714L10.1923 0.134714L9.44815 3.65803C9.30129 4.45596 9.15443 5.27461 9.01736 6.10363L8.97819 6.10363C8.88029 5.27461 8.78238 4.46632 8.68447 3.65803L8.2243 0.134714L6.44237 0.134714L7.76413 7.85492ZM19.5719 8C20.5901 8 21.4909 7.57513 22 7.057L22 3.45078L19.2879 3.45078L19.2879 4.96373L20.4433 4.96373L20.4433 6.20725C20.2866 6.33161 20.0125 6.40415 19.7579 6.40415C18.397 6.40415 17.7508 5.51295 17.7508 3.97927C17.7508 2.47668 18.5243 1.58549 19.6012 1.58549C20.2083 1.58549 20.5901 1.84456 20.9524 2.18653L21.8727 1.00518C21.3734 0.476684 20.6097 0 19.5425 0C17.5941 0 15.9591 1.4715 15.9591 4.04145C15.9591 6.65285 17.555 8 19.5719 8Z" fill="currentColor"/>
</svg>