<svg width="100%" height="100%" viewBox="0 0 16 16"xmlns="http://www.w3.org/2000/svg">
  <path d="M9.88234 2.54547L9.88234 0.84849C9.89522 0.444559 9.42955 2.92243e-07 9.05881 2.92243e-07L4.52941 0C4.14983 0 3.70588 0.427763 3.70588 0.84849L3.70588 2.54547L1.23531 2.54547C0.620069 2.54547 1.90043e-05 3.2218 1.90043e-05 3.81818L1.90043e-05 5.93939L14 5.93939L14 3.81818C14 3.18657 13.3761 2.54547 12.7647 2.54547L9.88234 2.54547ZM8.64703 2.54547L4.94117 2.54547L4.94117 1.69698C4.94117 1.43949 5.10404 1.27275 5.35293 1.27275L8.23526 1.27275C8.48397 1.27275 8.64702 1.43951 8.64702 1.69698L8.64702 2.54547L8.64703 2.54547ZM6.98392 8.46952C7.79499 8.46952 7.82352 7.44248 7.82352 6.78788L5.7647 6.78788C5.77857 7.31466 5.7808 8.48484 6.58823 8.48484C6.58823 8.48484 6.81422 8.46952 6.98392 8.46952ZM8.64703 6.78788C8.64703 6.78788 9.29967 9.33333 6.7939 9.33333C4.2067 9.33333 4.94117 6.78788 4.94117 6.78788L0 6.78788L0 12.7273C0 13.379 0.555318 14 1.23529 14L12.7647 14C13.3831 14 14 13.451 14 12.7273L14 6.78788L8.64703 6.78788Z" fill="currentColor"/>
</svg>