<svg width="100%" height="100%" viewBox="0 0 16 16"xmlns="http://www.w3.org/2000/svg">
  <path d="M9.77778 0.531L15.4756 6.3C15.8094 6.63602 15.998 7.09238 16 7.569L16 9.9C16 10.3971 15.602 10.8 15.1111 10.8C14.6202 10.8 14.2222 10.3971 14.2222 9.9L14.2222 8.1L9.77778 8.1C8.79594 8.1 8 7.29411 8 6.3L8 1.8L1.77778 1.8L1.77778 16.2L8 16.2C8.49092 16.2 8.88889 16.6029 8.88889 17.1C8.88889 17.5971 8.49092 18 8 18L1.77778 18C0.795938 18 0 17.1941 0 16.2L0 1.8C0 0.805887 0.795938 0 1.77778 0L8.52444 0C8.99518 0.00200958 9.44591 0.192971 9.77778 0.531ZM12.9689 6.3L9.77778 3.069L9.77778 6.3L12.9689 6.3ZM13.3333 13.5L15.1111 13.5C15.602 13.5 16 13.9029 16 14.4C16 14.897 15.602 15.3 15.1111 15.3L13.3333 15.3L13.3333 17.1C13.3333 17.597 12.9354 18 12.4444 18C11.9535 18 11.5556 17.597 11.5556 17.1L11.5556 15.3L9.77778 15.3C9.28686 15.3 8.88889 14.897 8.88889 14.4C8.88889 13.9029 9.28686 13.5 9.77778 13.5L11.5556 13.5L11.5556 11.7C11.5556 11.2029 11.9535 10.8 12.4444 10.8C12.9354 10.8 13.3333 11.2029 13.3333 11.7L13.3333 13.5Z" fill="currentColor"/>
</svg>