<svg width="100%" height="100%" viewBox="0 0 16 16"xmlns="http://www.w3.org/2000/svg">
  <path d="M22 5.01568L22 15.7298C21.9286 16.5042 21.3286 17.1218 20.5714 17.2087L18.6548 17.2087L18.6548 20.4897C18.5952 21.2835 17.981 21.9204 17.2048 22L4.84286 22C4.02619 21.9373 3.37619 21.2593 3.34762 20.4198L3.34762 17.2087L1.36667 17.2087C0.628571 17.0929 0.0571429 16.4753 0 15.7105L0 5.12666C0.0547619 4.32087 0.680952 3.67672 1.47143 3.60434L3.34762 3.60434L3.34762 1.51025C3.41191 0.680338 4.08571 0.0241255 4.91429 0L17.1191 0C17.9143 0.0337756 18.5619 0.651387 18.6548 1.4427L18.6548 3.60434L20.3952 3.60434C21.2119 3.60434 21.8881 4.21954 22 5.01568ZM16.7048 1.97587L5.29762 1.97587L5.29762 3.60434L16.7048 3.60434L16.7048 1.97587ZM18.6548 15.2328L20.0524 15.2328L20.0524 5.58022L1.95238 5.58022L1.95238 15.2328L3.34762 15.2328L3.34762 13.1242C3.39524 12.2943 4.05 11.6285 4.86905 11.5802L17.1762 11.5802C17.9452 11.6405 18.5619 12.2437 18.6548 13.0133L18.6548 15.2328ZM17.6786 8.81303C18.2165 8.81303 18.6525 8.37125 18.6525 7.8263C18.6525 7.28134 18.2165 6.83957 17.6786 6.83957C17.1408 6.83957 16.7048 7.28134 16.7048 7.8263C16.7048 8.37125 17.1408 8.81303 17.6786 8.81303ZM16.7048 20.0217L16.7048 13.5561L5.29762 13.5561L5.29762 20.0217L16.7048 20.0217Z" fill="currentColor"/>
</svg>