<svg xmlns="http://www.w3.org/2000/svg" xmlns:xlink="http://www.w3.org/1999/xlink" fill="none" version="1.1" width="18" height="16" viewBox="0 0 18 16"><path d="M17.59362,5.1821861L14.069674,0.74493939C13.71728,0.29149815,13.140634,0,12.563988,0L5.4520249,0C4.8753791,0,4.3307691,0.25910938,3.9463391,0.74493939L0.42239314,5.1821861C-0.18628868,5.9271264,-0.12221693,7.0283408,0.51850051,7.7408915L7.6624999,15.384617L7.7586079,15.481783C8.111002,15.805669,8.5915403,16,9.0720778,16L9.1361504,16C9.6487226,15.967613,10.129261,15.77328,10.481657,15.384616L17.465477,7.7732797C18.138229,7.0283408,18.170265,5.9271255,17.59362,5.1821861ZM16.536436,6.8663969L9.552618,14.477734C9.4244728,14.607289,9.2642937,14.672064,9.1041145,14.672064C8.9439344,14.672064,8.7837553,14.607287,8.655612,14.510121L1.4795768,6.8340087C1.2553257,6.6072874,1.2553257,6.2510128,1.4475406,5.9919033L4.9394512,1.5546559C5.0675941,1.3927127,5.2598095,1.2955465,5.4520249,1.2955465L12.563988,1.2955465C12.756203,1.2955465,12.948419,1.3927127,13.076562,1.5546559L16.600508,5.9919033C16.760687,6.2510123,16.760687,6.6072874,16.536436,6.8663969Z" fill="currentColor" style="mix-blend-mode:passthrough"/><path d="M12.403819045056153,6.510246215648193L9.072089245056151,10.105388195648192L5.644250245056153,6.445469275648193C5.3879636550561525,6.1863601986481935,5.003532885056153,6.153971411648193,4.715210135056152,6.4130804856481936C4.458923403056152,6.639801385648194,4.458923403056152,7.0608537756481935,4.683174145056152,7.319962895648193L8.143048245056153,11.012270895648193L8.207120145056152,11.077048295648193C8.719694145056152,11.562877695648194,9.520590345056153,11.530489895648193,10.033164945056154,11.012270895648193L13.364894845056153,7.3523515956481935C13.589146645056152,7.0932425256481935,13.589146645056152,6.6721895656481935,13.332859945056152,6.445469275648193C13.044536545056152,6.218748371648194,12.660106645056151,6.251137159648193,12.403819045056153,6.510246215648193Z" fill="currentColor" style="mix-blend-mode:passthrough"/></svg>